<?xml version="1.0" encoding="UTF-8" standalone="no"?>
<svg
   id="Layer_1"
   viewBox="0 0 122.72 102.83"
   version="1.1"
   width="122.72"
   height="102.83"
   xmlns="http://www.w3.org/2000/svg"
   xmlns:svg="http://www.w3.org/2000/svg">
  <defs
     id="defs1">
    <style
       id="style1">
      .cls-1 {
        fill: #3a56fd;
      }
    </style>
  </defs>
  <path
     class="cls-1"
     d="M 62.04,74.11 96.21,0 122.72,99.66 h -17.63 v -0.95 l 1.7,-1.7 c 0.23,-0.23 0.42,-0.54 0.58,-0.95 0.16,-0.41 0.24,-0.84 0.24,-1.29 0,-0.23 -0.05,-0.57 -0.14,-1.02 -0.09,-0.45 -0.23,-0.97 -0.41,-1.56 L 92.35,35.51 61.37,102.83 29.02,36.21 15.53,92.14 c -0.14,0.5 -0.24,0.95 -0.3,1.36 -0.07,0.41 -0.1,0.79 -0.1,1.15 0,0.5 0.07,0.95 0.2,1.36 0.14,0.41 0.34,0.75 0.61,1.02 l 1.56,1.7 v 0.95 H 0 L 26.92,0 62.04,74.1 Z"
     id="path1" />
</svg>
